<?xml version="1.0" encoding="UTF-8"?>
<svg version="1.1" xmlns="http://www.w3.org/2000/svg" width="846" height="846">
<path d="M0,0 L3,0 L3,2 L7,4 L8,9 L8,13 L8,17 L8,21 L8,25 L8,29 L8,33 L8,37 L8,41 L8,45 L8,49 L8,53 L8,57 L8,61 L8,65 L8,69 L8,73 L8,77 L8,81 L8,85 L8,89 L8,93 L8,97 L8,101 L8,105 L8,109 L8,113 L8,117 L8,121 L8,125 L8,129 L8,133 L8,137 L8,141 L8,145 L8,149 L8,153 L8,157 L8,161 L8,165 L8,169 L8,173 L8,177 L8,181 L8,185 L8,189 L8,193 L8,197 L8,201 L8,205 L8,209 L8,213 L8,217 L8,221 L8,225 L8,229 L8,233 L8,237 L8,241 L8,245 L8,249 L8,253 L8,257 L8,261 L8,265 L8,269 L8,273 L8,277 L8,281 L8,285 L8,289 L8,293 L8,297 L8,301 L8,305 L8,309 L8,313 L8,317 L8,321 L8,325 L8,329 L8,333 L8,337 L8,341 L8,345 L8,349 L8,353 L8,357 L8,361 L8,365 L8,369 L8,373 L8,377 L8,381 L8,385 L8,389 L8,393 L8,397 L8,401 L8,405 L8,409 L8,413 L8,417 L8,421 L8,425 L8,429 L8,433 L8,437 L8,441 L8,445 L8,449 L8,453 L8,457 L8,461 L8,465 L8,469 L8,473 L8,477 L8,481 L8,485 L8,489 L8,493 L8,497 L8,501 L8,505 L8,509 L8,513 L8,517 L8,521 L8,525 L8,529 L8,533 L8,537 L8,541 L8,545 L8,549 L8,553 L8,557 L8,561 L8,565 L8,569 L8,573 L8,577 L8,581 L8,585 L8,589 L8,593 L8,597 L8,601 L8,605 L8,609 L8,613 L8,617 L8,621 L8,625 L8,629 L8,633 L8,637 L7,642 L5,642 L5,644 L-631,644 L-632,642 L-632,3 L-631,2 L-471,2 L-469,6 L-470,11 L-469,16 L-469,20 L-469,24 L-469,28 L-469,32 L-469,36 L-469,40 L-469,44 L-469,48 L-469,52 L-469,56 L-469,60 L-469,64 L-469,68 L-469,72 L-469,76 L-469,80 L-469,84 L-469,88 L-469,92 L-469,96 L-469,100 L-469,104 L-469,108 L-469,112 L-469,116 L-469,120 L-469,124 L-469,128 L-469,132 L-469,136 L-469,140 L-469,144 L-469,148 L-469,152 L-469,156 L-469,160 L-469,164 L-469,168 L-469,172 L-469,176 L-469,180 L-469,184 L-469,188 L-469,192 L-469,196 L-469,200 L-469,204 L-469,208 L-469,212 L-469,216 L-469,220 L-469,224 L-469,228 L-469,232 L-469,236 L-469,240 L-469,244 L-469,248 L-469,252 L-469,256 L-469,260 L-155,261 L-155,2 L0,2 Z " fill="#EB9795" transform="translate(638,97)"/>
<path d="M0,0 L157,0 L157,635 L-1,635 L-1,259 Z " fill="#EF5B4E" transform="translate(486,101)"/>
<path d="M0,0 L156,0 L156,635 L0,635 Z " fill="#46BAB6" transform="translate(9,101)"/>
<path d="M0,0 L159,1 L159,378 L0,378 Z " fill="#0096B1" transform="translate(166,359)"/>
<path d="M0,0 L155,0 L161,6 L161,10 L161,14 L161,18 L161,22 L161,26 L161,30 L161,32 L159,32 L159,36 L159,40 L159,44 L159,48 L159,52 L159,56 L159,60 L159,64 L159,68 L159,72 L159,76 L159,80 L159,84 L159,88 L159,92 L159,96 L159,100 L159,104 L159,108 L159,112 L159,116 L159,120 L159,124 L159,128 L159,132 L159,136 L159,140 L159,144 L159,148 L159,152 L159,156 L159,160 L159,164 L159,168 L161,172 L160,177 L160,181 L161,186 L161,190 L161,194 L161,198 L161,202 L161,206 L161,210 L161,214 L161,218 L161,220 L159,220 L159,222 L157,222 L157,224 L1,224 L1,222 L-2,222 L-2,1 Z " fill="#41AD87" transform="translate(682,517)"/>
<path d="M0,0 L3,0 L3,2 L7,4 L8,9 L8,13 L8,17 L8,21 L8,25 L8,29 L8,33 L8,37 L8,41 L8,45 L8,49 L8,53 L8,57 L8,61 L8,65 L8,69 L8,73 L8,77 L8,81 L8,85 L8,89 L8,93 L8,97 L8,101 L8,105 L8,109 L8,113 L8,117 L8,121 L8,125 L8,129 L8,133 L8,137 L8,141 L8,145 L8,149 L8,153 L8,157 L8,161 L8,165 L8,169 L8,173 L8,177 L8,181 L8,185 L8,189 L8,193 L8,197 L8,201 L8,205 L8,209 L8,213 L8,217 L8,221 L8,225 L8,229 L8,233 L8,237 L8,241 L8,245 L8,249 L8,253 L8,257 L8,261 L8,265 L8,269 L8,273 L8,277 L8,281 L8,285 L8,289 L8,293 L8,297 L8,301 L8,305 L8,309 L8,313 L8,317 L8,321 L8,325 L8,329 L8,333 L8,337 L8,341 L8,345 L8,349 L8,353 L8,357 L8,361 L8,365 L8,369 L8,373 L8,377 L8,381 L8,385 L8,389 L8,393 L8,397 L8,401 L8,405 L8,409 L8,413 L8,417 L8,421 L8,425 L8,429 L8,433 L8,437 L8,441 L8,445 L8,449 L8,453 L8,457 L8,461 L8,465 L8,469 L8,473 L8,477 L8,481 L8,485 L8,489 L8,493 L8,497 L8,501 L8,505 L8,509 L8,513 L8,517 L8,521 L8,525 L8,529 L8,533 L8,537 L8,541 L8,545 L8,549 L8,553 L8,557 L8,561 L8,565 L8,569 L8,573 L8,577 L8,581 L8,585 L8,589 L8,593 L8,597 L8,601 L8,605 L8,609 L8,613 L8,617 L8,621 L8,625 L8,629 L8,633 L8,637 L7,642 L5,642 L5,644 L-631,644 L-632,642 L-632,3 L-631,2 L-471,2 L-469,6 L-470,11 L-469,16 L-469,20 L-469,24 L-469,28 L-469,32 L-469,36 L-469,40 L-469,44 L-469,48 L-469,52 L-469,56 L-469,60 L-469,64 L-469,68 L-469,72 L-469,76 L-469,80 L-469,84 L-469,88 L-469,92 L-469,96 L-469,100 L-469,104 L-469,108 L-469,112 L-469,116 L-469,120 L-469,124 L-469,128 L-469,132 L-469,136 L-469,140 L-469,144 L-469,148 L-469,152 L-469,156 L-469,160 L-469,164 L-469,168 L-469,172 L-469,176 L-469,180 L-469,184 L-469,188 L-469,192 L-469,196 L-469,200 L-469,204 L-469,208 L-469,212 L-469,216 L-469,220 L-469,224 L-469,228 L-469,232 L-469,236 L-469,240 L-469,244 L-469,248 L-469,252 L-469,256 L-469,260 L-155,261 L-155,2 L0,2 Z M-629,4 L-629,639 L-473,639 L-473,4 Z M-152,4 L-153,5 L-154,262 L-313,263 L-472,262 L-472,640 L5,640 L5,4 Z " fill="#B3DADA" transform="translate(638,97)"/>
<path d="M0,0 L1,3 L2,638 L635,639 L636,642 L0,642 L-1,640 L-1,1 Z " fill="#FCFDFD" transform="translate(7,99)"/>
<path d="M0,0 L4,1 L5,6 L5,10 L5,14 L5,18 L5,22 L5,26 L5,30 L5,34 L5,38 L5,42 L5,46 L5,50 L5,54 L5,58 L5,62 L5,66 L5,70 L5,74 L5,78 L5,82 L5,86 L5,90 L5,94 L5,98 L5,102 L5,106 L5,110 L5,114 L5,118 L5,122 L5,126 L5,130 L5,134 L5,138 L5,142 L5,146 L5,150 L5,154 L5,158 L5,162 L5,166 L5,170 L5,174 L5,178 L5,182 L5,186 L5,190 L5,194 L5,198 L5,202 L5,206 L5,210 L5,214 L5,218 L5,222 L5,226 L5,230 L5,234 L5,238 L5,242 L5,246 L5,250 L5,254 L5,258 L319,259 L319,0 L322,0 L321,260 L320,261 L161,262 L3,261 L1,260 Z " fill="#D4DCDE" transform="translate(164,99)"/>
<path d="M0,0 L155,0 L157,3 L0,4 L0,219 L157,220 L157,167 L161,171 L161,174 L159,180 L161,184 L160,189 L161,194 L161,198 L161,202 L161,206 L161,210 L161,214 L161,218 L161,220 L159,220 L159,222 L157,222 L157,224 L1,224 L1,222 L-2,222 L-2,1 Z " fill="#F4F9F8" transform="translate(682,517)"/>
<path d="M0,0 L4,1 L5,6 L5,10 L5,14 L5,18 L5,22 L5,26 L5,30 L5,34 L5,38 L5,42 L5,46 L5,50 L5,54 L5,58 L5,62 L5,66 L5,70 L5,74 L5,78 L5,82 L5,86 L5,90 L5,94 L5,98 L5,102 L5,106 L5,110 L5,114 L5,118 L5,122 L5,126 L5,130 L5,134 L5,138 L5,142 L5,146 L5,150 L5,154 L5,158 L5,162 L5,166 L5,170 L5,174 L5,178 L5,182 L5,186 L5,190 L5,194 L5,198 L5,202 L5,206 L5,210 L5,214 L5,218 L5,222 L5,226 L5,230 L5,234 L5,238 L5,242 L5,246 L5,250 L5,254 L5,258 L5,260 L1,260 Z " fill="#DEEEED" transform="translate(164,99)"/>
<path d="M0,0 L3,3 L3,7 L3,11 L3,15 L3,19 L3,23 L3,27 L3,31 L3,35 L3,39 L3,43 L3,47 L3,51 L3,55 L3,59 L3,63 L3,67 L3,71 L3,75 L3,79 L3,83 L3,87 L3,91 L3,95 L3,99 L3,103 L3,107 L3,111 L3,115 L3,119 L3,123 L3,127 L3,131 L3,135 L3,139 L3,143 L3,147 L2,152 L-318,151 L-318,150 L0,150 Z " fill="#EFD7D5" transform="translate(643,587)"/>
<path d="M0,0 L3,0 L3,2 L7,4 L8,9 L8,13 L8,17 L8,21 L8,25 L8,29 L8,33 L8,37 L8,41 L8,45 L8,49 L8,53 L8,57 L8,61 L8,65 L8,69 L8,73 L8,77 L8,81 L8,85 L8,89 L8,93 L8,97 L8,101 L8,105 L8,109 L8,113 L8,117 L8,121 L8,125 L8,127 L5,126 L5,4 L-152,4 L-152,2 L0,2 Z " fill="#E9D2CF" transform="translate(638,97)"/>
<path d="M0,0 L3,0 L2,260 L1,261 L-6,261 L-5,259 L0,259 Z " fill="#FDF2F2" transform="translate(483,99)"/>
<path d="M0,0 L153,0 L155,3 L-1,3 Z " fill="#D8EBE4" transform="translate(684,517)"/>
<path d="M0,0 L4,4 L4,7 L2,13 L4,17 L3,22 L4,27 L4,31 L4,35 L4,39 L4,43 L4,47 L4,51 L4,53 L2,53 L2,55 L-156,54 L-156,53 L0,53 Z " fill="#CAE7DC" transform="translate(839,684)"/>
<path d="M0,0 L2,0 L0,4 L-1,203 L-2,203 L-2,1 Z " fill="#FDFEFD" transform="translate(682,517)"/>
<path d="M0,0 L4,4 L4,7 L3,12 L1,12 L1,53 L0,53 Z " fill="#95CEBC" transform="translate(839,684)"/>
<path d="M0,0 L3,1 L3,5 L3,9 L3,13 L3,17 L3,21 L3,25 L3,27 L1,27 L0,29 Z " fill="#F5F5F5" transform="translate(840,522)"/>
<path d="M0,0 L3,0 L3,2 L7,4 L8,9 L8,13 L8,17 L8,21 L8,23 L5,22 L4,4 L0,3 Z " fill="#ECE5E5" transform="translate(638,97)"/>
<path d="M0,0 L1,0 L1,20 L2,23 L-1,23 L-1,4 Z " fill="#F4F9F8" transform="translate(681,716)"/>
<path d="M0,0 L7,0 L9,2 L8,3 L1,3 L-2,1 Z " fill="#F4ECEC" transform="translate(324,358)"/>
<path d="M0,0 L1,0 L1,7 L0,8 L-7,8 L-6,6 L-1,6 Z " fill="#F9F3F2" transform="translate(484,352)"/>
<path d="M0,0 L3,3 L3,7 L3,9 L1,9 L0,11 L-1,9 Z " fill="#F1F2F2" transform="translate(840,728)"/>
<path d="M0,0 L3,4 L2,9 L2,11 L0,11 Z " fill="#F6F6F6" transform="translate(840,685)"/>
<path d="M0,0 L3,0 L3,2 L7,4 L8,7 L5,6 L4,4 L0,3 Z " fill="#F6F1F0" transform="translate(638,97)"/>
</svg>
